<svg id="visual" viewBox="0 0 960 540" width="960" height="540" xmlns="http://www.w3.org/2000/svg" xmlns:xlink="http://www.w3.org/1999/xlink" version="1.1"><rect x="0" y="0" width="960" height="540" fill="#ffffff"></rect><defs><linearGradient id="grad1_0" x1="43.8%" y1="0%" x2="100%" y2="100%"><stop offset="14.444444444444446%" stop-color="#344c36" stop-opacity="1"></stop><stop offset="85.55555555555554%" stop-color="#344c36" stop-opacity="1"></stop></linearGradient></defs><defs><linearGradient id="grad1_1" x1="43.8%" y1="0%" x2="100%" y2="100%"><stop offset="14.444444444444446%" stop-color="#344c36" stop-opacity="1"></stop><stop offset="85.55555555555554%" stop-color="#94a194" stop-opacity="1"></stop></linearGradient></defs><defs><linearGradient id="grad1_2" x1="43.8%" y1="0%" x2="100%" y2="100%"><stop offset="14.444444444444446%" stop-color="#ffffff" stop-opacity="1"></stop><stop offset="85.55555555555554%" stop-color="#94a194" stop-opacity="1"></stop></linearGradient></defs><defs><linearGradient id="grad2_0" x1="0%" y1="0%" x2="56.3%" y2="100%"><stop offset="14.444444444444446%" stop-color="#344c36" stop-opacity="1"></stop><stop offset="85.55555555555554%" stop-color="#344c36" stop-opacity="1"></stop></linearGradient></defs><defs><linearGradient id="grad2_1" x1="0%" y1="0%" x2="56.3%" y2="100%"><stop offset="14.444444444444446%" stop-color="#94a194" stop-opacity="1"></stop><stop offset="85.55555555555554%" stop-color="#344c36" stop-opacity="1"></stop></linearGradient></defs><defs><linearGradient id="grad2_2" x1="0%" y1="0%" x2="56.3%" y2="100%"><stop offset="14.444444444444446%" stop-color="#94a194" stop-opacity="1"></stop><stop offset="85.55555555555554%" stop-color="#ffffff" stop-opacity="1"></stop></linearGradient></defs><g transform="translate(960, 0)"><path d="M0 459C-41.5 429 -83.1 399.1 -123.3 379.5C-163.5 359.9 -202.5 350.7 -242.8 334.1C-283 317.6 -324.7 293.7 -359.2 261C-393.7 228.3 -421.1 186.8 -436.5 141.8C-452 96.9 -455.5 48.4 -459 0L0 0Z" fill="#c8cfc8"></path><path d="M0 306C-27.7 286 -55.4 266 -82.2 253C-109 239.9 -135 233.8 -161.8 222.7C-188.7 211.7 -216.5 195.8 -239.5 174C-262.5 152.2 -280.7 124.5 -291 94.6C-301.3 64.6 -303.7 32.3 -306 0L0 0Z" fill="#627563"></path><path d="M0 153C-13.8 143 -27.7 133 -41.1 126.5C-54.5 120 -67.5 116.9 -80.9 111.4C-94.3 105.9 -108.2 97.9 -119.7 87C-131.2 76.1 -140.4 62.3 -145.5 47.3C-150.7 32.3 -151.8 16.1 -153 0L0 0Z" fill="#344c36"></path></g><g transform="translate(0, 540)"><path d="M0 -459C46.6 -453.8 93.3 -448.5 141.8 -436.5C190.4 -424.6 240.8 -405.8 267.4 -368.1C294.1 -330.4 296.9 -273.6 322.8 -234.5C348.7 -195.4 397.6 -174 424.2 -137.8C450.7 -101.7 454.9 -50.8 459 0L0 0Z" fill="#c8cfc8"></path><path d="M0 -306C31.1 -302.5 62.2 -299 94.6 -291C126.9 -283 160.5 -270.6 178.3 -245.4C196 -220.2 197.9 -182.4 215.2 -156.4C232.5 -130.3 265.1 -116 282.8 -91.9C300.5 -67.8 303.2 -33.9 306 0L0 0Z" fill="#627563"></path><path d="M0 -153C15.5 -151.3 31.1 -149.5 47.3 -145.5C63.5 -141.5 80.3 -135.3 89.1 -122.7C98 -110.1 99 -91.2 107.6 -78.2C116.2 -65.1 132.5 -58 141.4 -45.9C150.2 -33.9 151.6 -16.9 153 0L0 0Z" fill="#344c36"></path></g></svg>